<svg width="24" height="24" viewBox="0 0 24 24" fill="none" xmlns="http://www.w3.org/2000/svg">
<path d="M22.9601 17.9322H22.0036V15.9781V15.9382H21.9638H21.0072V13.984V13.9442H20.9674H20.0109V11.99V11.9501H19.971H19.0145V9.99601V9.95613H18.9746H18.0181V8.00199V7.96211H17.9783H17.0217V6.00798V5.9681H16.9819H16.0254V4.01396V3.97408H15.9855H14.0127V2.01994V2H13.9928H12H10.0072H9.98732V2.01994V3.97408H8.01449H7.97464V4.01396V5.9681H7.01812H6.97826V6.00798V7.96211H6.02174H5.98188V8.00199V9.95613H5.02536H4.98551V9.99601V11.9501H4.02899H3.98913V11.99V13.9442H3.03261H2.99275V13.984V15.9382H2.03623H1.99638V15.9781V17.9322H1.03986H1V17.9721V19.9661V20.006H1.03986H1.99638V21.9601V22H2.03623H4.02899H4.06884V21.9601V20.006H5.02536H5.06522V19.9661V18.012H6.02174H6.06159V17.9721V16.0179H7.01812H7.05797V15.9781V14.0239H8.01449H8.05435V13.984V12.0299H9.01087H9.05072V11.99V10.0359H10.0072H10.0471V9.99601V8.04187H11.0036H11.0435V8.00199V6.02792H12H12.9565V8.00199V8.04187H12.9964H13.9529V9.99601V10.0359H13.9928H14.9493V11.99V12.0299H14.9891H15.9457V13.984V14.0239H15.9855H16.942V15.9781V16.0179H16.9819H17.9384V17.9721V18.012H17.9783H18.9348V19.9661V20.006H18.9746H19.9312V21.9601V22H19.971H21.9638H22.0036V21.9601V20.006H22.9601H23V19.9661V17.9721V17.9322H22.9601Z" fill="#8232FF"/>
</svg>
