<svg width="361" height="27" viewBox="0 0 361 27" fill="none" xmlns="http://www.w3.org/2000/svg">
<path fill-rule="evenodd" clip-rule="evenodd" d="M2.66667 0V6.66667H13.3333V26.6667H0V0H2.66667ZM2.66667 9.33333V14.6667H10.6667V9.33333H2.66667ZM10.6667 17.3333H2.66667V24H10.6667V17.3333Z" fill="#8232FF"/>
<path d="M32.9266 25.3136H29.3333V1.25643H41.0799C43.3787 1.25643 45.1297 1.87948 46.3328 3.12557C47.536 4.37166 48.1375 6.12264 48.1375 8.3785C48.1375 9.79647 47.8206 11.0103 47.1868 12.0201C46.5531 13.0299 45.6937 13.7335 44.6087 14.1309V14.3565H45.8333C47.4124 14.3565 48.202 15.2159 48.202 16.9347V25.3136H44.5765V16.2418H32.9266V25.3136ZM32.9266 4.39852V13.2286H40.2743C41.5311 13.2286 42.514 12.9224 43.223 12.3101C43.9427 11.6871 44.3026 10.8492 44.3026 9.79647V7.79842C44.3026 6.69198 43.9481 5.84871 43.2391 5.26864C42.5409 4.68856 41.5526 4.39852 40.2743 4.39852H32.9266Z" fill="#201F24"/>
<path d="M49.6702 16.5963C49.6702 13.7926 50.4061 11.5958 51.8777 10.0059C53.3494 8.4161 55.3528 7.62118 57.888 7.62118C60.2835 7.62118 62.1849 8.32479 63.5921 9.73202C65.0208 11.1607 65.7352 13.0889 65.7352 15.5167C65.7352 16.086 65.6922 16.7091 65.6063 17.3858H53.1668V18.3526C53.1668 19.7276 53.6072 20.8394 54.4881 21.6881C55.369 22.526 56.5237 22.9449 57.9525 22.9449C59.0804 22.9449 60.0418 22.6817 60.8367 22.1554C61.6424 21.629 62.1795 20.92 62.4481 20.0284H65.7996C65.4559 21.7257 64.5643 23.0846 63.1248 24.1051C61.6961 25.1256 59.9612 25.6358 57.9202 25.6358C55.3636 25.6358 53.3494 24.8248 51.8777 23.2027C50.4061 21.5806 49.6702 19.3785 49.6702 16.5963ZM53.1668 14.5499V14.9527H62.303V14.3888C62.303 13.1749 61.8948 12.1973 61.0784 11.4561C60.262 10.7042 59.1878 10.3282 57.8558 10.3282C56.47 10.3282 55.3421 10.7203 54.472 11.5045C53.6019 12.2779 53.1668 13.2931 53.1668 14.5499Z" fill="#201F24"/>
<path d="M66.4783 20.3346C66.4783 18.6373 67.0315 17.316 68.138 16.3707C69.2552 15.4254 70.802 14.9527 72.7786 14.9527H77.8221V13.6959C77.8221 11.4508 76.6351 10.3282 74.261 10.3282C73.1116 10.3282 72.2146 10.5914 71.5701 11.1178C70.9363 11.6441 70.5926 12.3746 70.5389 13.3092H67.1712C67.2786 11.5152 67.9715 10.1187 69.2498 9.11971C70.5389 8.12069 72.263 7.62118 74.4222 7.62118C75.5071 7.62118 76.49 7.77157 77.3709 8.07235C78.2518 8.37313 78.9339 8.76522 79.4173 9.24862C80.6204 10.398 81.222 11.9019 81.222 13.7603V22.8321H83.6712V25.3136H80.5291C79.6912 25.3136 79.0843 25.1524 78.7083 24.8302C78.3323 24.5079 78.1175 24.0084 78.0638 23.3316L78.0315 22.5098H77.7898C77.4139 23.4552 76.6995 24.2125 75.6468 24.7818C74.6048 25.3512 73.3963 25.6358 72.0213 25.6358C70.3133 25.6358 68.9598 25.1578 67.9607 24.2017C66.9725 23.2349 66.4783 21.9459 66.4783 20.3346ZM69.9427 19.6095V20.5279C69.9427 21.3121 70.2059 21.9137 70.7322 22.3326C71.2693 22.7408 72.0159 22.9449 72.972 22.9449C74.4651 22.9449 75.6468 22.5098 76.5169 21.6397C77.387 20.7589 77.8221 19.588 77.8221 18.127V17.2891H73.2137C72.1824 17.2891 71.3768 17.4986 70.7967 17.9176C70.2273 18.3258 69.9427 18.8897 69.9427 19.6095Z" fill="#201F24"/>
<path d="M96.4993 19.2711H99.867C99.5984 21.2476 98.7659 22.8053 97.3694 23.9439C95.9837 25.0719 94.2112 25.6358 92.052 25.6358C89.4524 25.6358 87.4168 24.8355 85.9451 23.2349C84.4949 21.6236 83.7698 19.4322 83.7698 16.6607C83.7698 13.8248 84.5271 11.6173 86.0418 10.0382C87.5886 8.42684 89.6243 7.62118 92.1487 7.62118C94.2005 7.62118 95.9246 8.18514 97.3211 9.31307C98.7175 10.4303 99.5554 11.9234 99.8347 13.7926H96.4348C96.177 12.7076 95.6614 11.8858 94.888 11.3272C94.1145 10.7686 93.1585 10.4893 92.0198 10.4893C90.5803 10.4893 89.4202 10.9459 88.5393 11.859C87.6692 12.7721 87.2342 13.9591 87.2342 15.42V18.127C87.2342 19.5557 87.6692 20.6944 88.5393 21.5431C89.4202 22.3809 90.5803 22.7999 92.0198 22.7999C93.2229 22.7999 94.2166 22.4884 95.0007 21.8653C95.7957 21.2423 96.2952 20.3775 96.4993 19.2711Z" fill="#201F24"/>
<path d="M109.617 10.7955H106.024V22.5421H109.617V25.3136H105.525C103.613 25.3136 102.656 24.379 102.656 22.5098V10.7955H99.5305V7.95955H102.656V2.31991H106.024V7.95955H109.617V10.7955Z" fill="#201F24"/>
<path d="M121.207 25.3136H117.613V1.25643H121.964L133.936 20.5924H134.113L133.872 13.4058V1.25643H137.433V25.3136H133.082L121.142 5.97762H120.965L121.207 12.9063V25.3136Z" fill="#201F24"/>
<path d="M139.884 20.3346C139.884 18.6373 140.437 17.316 141.544 16.3707C142.661 15.4254 144.208 14.9527 146.184 14.9527H151.228V13.6959C151.228 11.4508 150.041 10.3282 147.667 10.3282C146.517 10.3282 145.62 10.5914 144.976 11.1178C144.342 11.6441 143.998 12.3746 143.945 13.3092H140.577C140.684 11.5152 141.377 10.1187 142.655 9.11971C143.945 8.12069 145.669 7.62118 147.828 7.62118C148.913 7.62118 149.896 7.77157 150.777 8.07235C151.657 8.37313 152.34 8.76522 152.823 9.24862C154.026 10.398 154.628 11.9019 154.628 13.7603V22.8321H157.077V25.3136H153.935C153.097 25.3136 152.49 25.1524 152.114 24.8302C151.738 24.5079 151.523 24.0084 151.469 23.3316L151.437 22.5098H151.195C150.82 23.4552 150.105 24.2125 149.052 24.7818C148.01 25.3512 146.802 25.6358 145.427 25.6358C143.719 25.6358 142.365 25.1578 141.366 24.2017C140.378 23.2349 139.884 21.9459 139.884 20.3346ZM143.348 19.6095V20.5279C143.348 21.3121 143.612 21.9137 144.138 22.3326C144.675 22.7408 145.422 22.9449 146.378 22.9449C147.871 22.9449 149.052 22.5098 149.923 21.6397C150.793 20.7589 151.228 19.588 151.228 18.127V17.2891H146.619C145.588 17.2891 144.782 17.4986 144.202 17.9176C143.633 18.3258 143.348 18.8897 143.348 19.6095Z" fill="#201F24"/>
<path d="M169.76 5.3492V1.28866H173.111V5.3492H169.76ZM162.525 7.95955H173.111V25.3136H169.76V10.7955H162.525V22.5421H165.989V25.3136H162.171C161.086 25.3136 160.312 25.0611 159.85 24.5562C159.388 24.0514 159.147 23.3048 159.125 22.3165V10.7955H155.999V7.95955H159.125V2.31991H162.525V7.95955Z" fill="#201F24"/>
<path d="M179.962 25.3136L173.758 7.95955H177.512L180.284 16.6607L181.911 22.0103H182.105L183.684 16.693L186.455 7.95955H190.193L184.087 25.3136H179.962Z" fill="#201F24"/>
<path d="M189.406 16.5963C189.406 13.7926 190.142 11.5958 191.613 10.0059C193.085 8.4161 195.089 7.62118 197.624 7.62118C200.019 7.62118 201.921 8.32479 203.328 9.73202C204.756 11.1607 205.471 13.0889 205.471 15.5167C205.471 16.086 205.428 16.7091 205.342 17.3858H192.902V18.3526C192.902 19.7276 193.343 20.8394 194.224 21.6881C195.105 22.526 196.259 22.9449 197.688 22.9449C198.816 22.9449 199.777 22.6817 200.572 22.1554C201.378 21.629 201.915 20.92 202.184 20.0284H205.535C205.192 21.7257 204.3 23.0846 202.86 24.1051C201.432 25.1256 199.697 25.6358 197.656 25.6358C195.099 25.6358 193.085 24.8248 191.613 23.2027C190.142 21.5806 189.406 19.3785 189.406 16.5963ZM192.902 14.5499V14.9527H202.039V14.3888C202.039 13.1749 201.63 12.1973 200.814 11.4561C199.998 10.7042 198.923 10.3282 197.591 10.3282C196.206 10.3282 195.078 10.7203 194.208 11.5045C193.338 12.2779 192.902 13.2931 192.902 14.5499Z" fill="#201F24"/>
<path d="M225.036 25.3136H213.596V1.25643H225.197C227.324 1.25643 228.962 1.80428 230.112 2.89998C231.261 3.98495 231.836 5.47274 231.836 7.36336C231.836 8.67391 231.535 9.80184 230.934 10.7472C230.343 11.6925 229.5 12.3692 228.404 12.7774V13.0352C229.725 13.3575 230.73 14.0289 231.417 15.0494C232.115 16.0699 232.464 17.3482 232.464 18.8844C232.464 20.8609 231.798 22.4293 230.466 23.5894C229.145 24.7389 227.335 25.3136 225.036 25.3136ZM217.125 4.15682V11.6173H224.778C225.831 11.6173 226.653 11.3541 227.244 10.8277C227.845 10.3014 228.146 9.57625 228.146 8.65243V7.05721C228.146 6.14412 227.845 5.43514 227.244 4.93026C226.653 4.41463 225.82 4.15682 224.746 4.15682H217.125ZM217.125 14.4854V22.4132H224.585C225.842 22.4132 226.836 22.1339 227.566 21.5753C228.296 21.0059 228.662 20.2486 228.662 19.3033V17.692C228.662 16.65 228.339 15.8551 227.695 15.3072C227.05 14.7594 226.153 14.4854 225.004 14.4854H217.125Z" fill="#201F24"/>
<path d="M237.768 7.95955H243.778V10.7955H238.17V25.3136H234.771V10.9244C234.771 9.97909 234.991 9.24862 235.431 8.73299C235.882 8.21737 236.661 7.95955 237.768 7.95955Z" fill="#201F24"/>
<path d="M245.053 23.2349C243.56 21.6129 242.813 19.4107 242.813 16.6285C242.813 13.8463 243.57 11.6495 245.085 10.0382C246.6 8.42684 248.646 7.62118 251.224 7.62118C253.727 7.62118 255.752 8.42684 257.299 10.0382C258.857 11.628 259.635 13.8248 259.635 16.6285C259.635 19.3892 258.889 21.5806 257.396 23.2027C255.902 24.8248 253.845 25.6358 251.224 25.6358C248.614 25.6358 246.557 24.8355 245.053 23.2349ZM246.277 15.3556V18.0465C246.277 19.5289 246.734 20.6944 247.647 21.5431C248.56 22.3809 249.752 22.7999 251.224 22.7999C252.685 22.7999 253.867 22.3756 254.769 21.5269C255.682 20.6783 256.139 19.5181 256.139 18.0465V15.3556C256.139 13.9054 255.682 12.7345 254.769 11.8429C253.856 10.9405 252.674 10.4893 251.224 10.4893C249.752 10.4893 248.56 10.9351 247.647 11.8267C246.734 12.7183 246.277 13.8946 246.277 15.3556Z" fill="#201F24"/>
<path d="M277.636 16.7413L279.811 7.95955H283.34L278.619 25.3136H274.236L272.222 16.8057L271.19 12.2135H270.997L270.046 16.8057L268.097 25.3136H263.73L258.912 7.95955H262.522L264.697 16.6607L265.809 21.9137H266.083L269.176 7.95955H273.172L276.347 21.8814H276.572L277.636 16.7413Z" fill="#201F24"/>
<path d="M287.725 25.3136H284.325V7.95955H287.29L287.757 11.1822H287.982C288.52 10.065 289.298 9.19491 290.319 8.57186C291.339 7.93807 292.5 7.62118 293.799 7.62118C295.701 7.62118 297.172 8.25496 298.214 9.52254C299.267 10.7901 299.793 12.525 299.793 14.7271V25.3136H296.361V15.0494C296.361 12.0846 295.078 10.6021 292.51 10.6021C291.071 10.6021 289.911 11.1178 289.03 12.149C288.16 13.1803 287.725 14.5338 287.725 16.2096V25.3136Z" fill="#201F24"/>
<path d="M307.127 7.95955H317.891V25.3136H314.491V10.7955H307.127V25.3136H303.727V10.7955H300.408V7.95955H303.727V4.02791C303.727 2.02987 304.731 1.03084 306.74 1.03084H311.59V3.80233H307.127V7.95955ZM314.491 5.09139V1.03084H317.891V5.09139H314.491Z" fill="#201F24"/>
<path d="M319.907 16.5963C319.907 13.7926 320.643 11.5958 322.114 10.0059C323.586 8.4161 325.589 7.62118 328.124 7.62118C330.52 7.62118 332.421 8.32479 333.829 9.73202C335.257 11.1607 335.972 13.0889 335.972 15.5167C335.972 16.086 335.929 16.7091 335.843 17.3858H323.403V18.3526C323.403 19.7276 323.844 20.8394 324.725 21.6881C325.605 22.526 326.76 22.9449 328.189 22.9449C329.317 22.9449 330.278 22.6817 331.073 22.1554C331.879 21.629 332.416 20.92 332.685 20.0284H336.036C335.692 21.7257 334.801 23.0846 333.361 24.1051C331.933 25.1256 330.198 25.6358 328.157 25.6358C325.6 25.6358 323.586 24.8248 322.114 23.2027C320.643 21.5806 319.907 19.3785 319.907 16.5963ZM323.403 14.5499V14.9527H332.54V14.3888C332.54 13.1749 332.131 12.1973 331.315 11.4561C330.499 10.7042 329.424 10.3282 328.092 10.3282C326.707 10.3282 325.579 10.7203 324.708 11.5045C323.838 12.2779 323.403 13.2931 323.403 14.5499Z" fill="#201F24"/>
<path d="M341.468 25.3136H338.101V1.03084H341.468V25.3136Z" fill="#201F24"/>
<path d="M350.397 25.6358C348.152 25.6358 346.401 24.857 345.144 23.2994C343.898 21.7418 343.275 19.5665 343.275 16.7735C343.275 13.9483 343.898 11.7569 345.144 10.1993C346.39 8.64168 348.141 7.86287 350.397 7.86287C353.372 7.86287 355.408 8.98543 356.504 11.2306H356.746V1.03084H360.178V25.3136H357.132L356.746 22.252H356.504C355.956 23.3263 355.145 24.1588 354.071 24.7496C353.007 25.3404 351.783 25.6358 350.397 25.6358ZM351.493 22.8321C353.072 22.8321 354.339 22.3648 355.295 21.4303C356.262 20.4957 356.746 19.2603 356.746 17.7242V15.7745C356.746 14.2384 356.262 13.003 355.295 12.0684C354.339 11.1339 353.072 10.6666 351.493 10.6666C350.042 10.6666 348.893 11.064 348.044 11.859C347.196 12.6431 346.771 13.7281 346.771 15.1139V18.3848C346.771 19.7598 347.185 20.8448 348.012 21.6397C348.839 22.4347 349.999 22.8321 351.493 22.8321Z" fill="#201F24"/>
</svg>
